# AST/ASF file generated using VICON BodyLanguage
# -----------------------------------------------
:version 1.10
:name VICON
:units
  mass 1.0
  length 0.45
  angle deg
:documentation
   .ast/.asf automatically generated from VICON data using
   VICON BodyBuilder and BodyLanguage model FoxedUp or BRILLIANT.MOD
:root
   order TX TY TZ RX RY RZ
   axis XYZ
   position 0 0 0  
   orientation 0 0 0 
:bonedata
  begin
     id 1 
     name lhipjoint
     direction 0.567149 -0.783011 0.255413 
     length 2.28399 
     axis 0 0 0  XYZ
  end
  begin
     id 2 
     name lfemur
     direction 0.34202 -0.939693 0  
     length 7.34031  
     axis 0 0 20  XYZ
    dof rx ry rz
    limits (-160.0 20.0)
           (-70.0 70.0)
           (-60.0 70.0)
  end
  begin
     id 3 
     name ltibia
     direction 0.34202 -0.939693 0   
     length 6.9833   
     axis 0 0 20   XYZ
    dof rx
    limits (-10.0 170.0)
  end
  begin
     id 4 
     name lfoot
     direction 0.136498 -0.375025 0.91691   
     length 2.33665   
     axis -90 7.62852e-016 20   XYZ
    dof rx rz
    limits (-45.0 90.0)
           (-70.0 20.0)
  end
  begin
     id 5 
     name ltoes
     direction 1.5367e-011 -4.21617e-011 1   
     length 1.15039   
     axis -90 7.62852e-016 20   XYZ
    dof rx
    limits (-90.0 20.0)
  end
  begin
     id 6 
     name rhipjoint
     direction -0.602854 -0.758518 0.247423   
     length 2.35775  
     axis 0 0 0  XYZ 
  end
  begin
     id 7 
     name rfemur
     direction -0.34202 -0.939693 0   
     length 7.43932   
     axis 0 0 -20   XYZ
    dof rx ry rz
    limits (-160.0 20.0)
           (-70.0 70.0)
           (-70.0 60.0)
  end
  begin
     id 8 
     name rtibia
     direction -0.34202 -0.939693 0   
     length 7.11893   
     axis 0 0 -20   XYZ
    dof rx
    limits (-10.0 170.0)
 end
 begin
     id 9 
     name rfoot
     direction -0.131771 -0.362037 0.922803   
     length 2.53019  
     axis -90 -7.62852e-016 -20   XYZ
    dof rx rz
    limits (-45.0 90.0)
           (-20.0 70.0)
  end
  begin
     id 10 
     name rtoes
     direction -1.53733e-011 -4.21932e-011 1   
     length 1.24596   
     axis -90 -7.62852e-016 -20   XYZ
    dof rx
    limits (-90.0 20.0)
  end
  begin
     id 11 
     name lowerback
     direction 0.0235427 0.999023 -0.0374125   
     length 2.21768   
     axis 0 0 0   XYZ
    dof rx ry rz
    limits (-20.0 45.0)
           (-30.0 30.0)
           (-30.0 30.0)
  end
  begin
     id 12 
     name upperback
     direction 0.0302156 0.996818 -0.073759   
     length 2.20352   
     axis 0 0 0   XYZ
    dof rx ry rz
    limits (-20.0 45.0)
           (-30.0 30.0)
           (-30.0 30.0)
  end
  begin
     id 13 
     name thorax
     direction 0.0187169 0.998235 -0.0563532   
     length 2.22103   
     axis 0 0 0   XYZ
    dof rx ry rz
    limits (-20.0 45.0)
           (-30.0 30.0)
           (-30.0 30.0)
  end
  begin
     id 14 
     name lowerneck
     direction -0.119528 0.987423 0.103481   
     length 1.72948   
     axis 0 0 0   XYZ
    dof rx ry rz
    limits (-20.0 45.0)
           (-30.0 30.0)
           (-30.0 30.0)
  end
  begin
     id 15 
     name upperneck
     direction 0.248049 0.963095 -0.104496   
     length 1.74979   
     axis 0 0 0   XYZ
    dof rx ry rz
    limits (-20.0 45.0)
           (-30.0 30.0)
           (-30.0 30.0)
  end
  begin
     id 16
     name head
     direction 0.0903589 0.994284 -0.056876  
     length 1.78268  
     axis 0 0 0   XYZ
    dof rx ry rz
    limits (-20.0 45.0)
           (-30.0 30.0)
           (-30.0 30.0)
  end
  begin
     id 17 
     name lclavicle
     direction 0.946008 0.242039 -0.215608  
     length 3.80783  
     axis 0 0 0   XYZ
    dof ry rz
    limits (-20.0 10.0)
           (0.0 20.0)
  end
  begin
     id 18 
     name lhumerus
     direction 1 -4.48991e-011 -2.25695e-027   
     length 4.83125   
     axis 180 -30 -90   XYZ
    dof rx ry rz
    limits (-60.0 90.0)
           (-90.0 90.0)
           (-90.0 90.0)
  end
  begin
     id 19
     name lradius
     direction 0.999991 0.00366712 -0.00211721   
     length 3.00391   
     axis 180 -30 -90   XYZ
    dof rx
    limits (-10.0 170.0)
  end
  begin
     id 20
     name lwrist
     direction 0.999991 0.00393016 -0.00141978   
     length 1.50195   
     axis -1.00488e-014 90 90   XYZ
    dof ry
    limits (-180.0 0.0)
 end
  begin
     id 21 
     name lhand
     direction 1 -4.49123e-011 2.72098e-026   
     length 1.2717   
     axis -1.73687e-014 90 90   XYZ
    dof rx rz
    limits (-90.0 90.0)
           (-45.0 45.0)
  end
  begin
     id 22 
     name lfingers
     direction 1 -4.48678e-011 5.4479e-026   
     length 1.02528   
     axis -3.47372e-014 90 90   XYZ
    dof rx
    limits (0.0 90.0)
  end
  begin
     id 23
     name lthumb
     direction 0.707107 -6.34851e-011 0.707107   
     length 1.4721   
     axis -90 45 -1.62303e-014   XYZ
    dof rx rz
    limits (-45.0 45.0)
           (-45.0 45.0)
  end
  begin
     id 24 
     name rclavicle
     direction -0.981723 0.189447 -0.0181673   
     length 3.74989  
     axis 0 0 0   XYZ 
    dof ry rz
    limits (-10.0 20.0)
           (-20.0 0.0)
  end
  begin
     id 25 
     name rhumerus
     direction -1 -4.48985e-011 2.38206e-027  
     length 4.61118   
     axis 180 30 90   XYZ
    dof rx ry rz
    limits (-90.0 60.0)
           (-90.0 90.0)
           (-90.0 90.0)
  end
  begin
     id 26 
     name rradius
     direction -1 -4.48977e-011 7.41019e-027   
     length 2.91491   
     axis 180 30 90   XYZ
    dof rx
    limits (-10.0 170.0)
  end
  begin
     id 27 
     name rwrist
     direction -1 -4.48549e-011 1.3624e-026   
     length 1.45745   
     axis -1.00488e-014 -90 -90   XYZ
    dof ry
    limits (-180.0 0.0)
  end
  begin
     id 28
     name rhand
     direction -1 -4.49107e-011 2.72109e-026   
     length 1.30769   
     axis -1.73687e-014 -90 -90   XYZ
    dof rx rz
    limits (-90.0 90.0)
           (-45.0 45.0)
  end
  begin
     id 29
     name rfingers
     direction -1 -4.48919e-011 5.44468e-026   
     length 1.05429   
     axis -3.47372e-014 -90 -90   XYZ
    dof rx
    limits (0.0 90.0)
  end
  begin
     id 30
     name rthumb
     direction -0.707107 -6.35315e-011 0.707107   
     length 1.51376   
     axis -90 -45 1.62303e-014   XYZ
    dof rx rz
    limits (-45.0 45.0)
           (-45.0 45.0)
  end
:hierarchy
  begin
    root lhipjoint rhipjoint lowerback
    lhipjoint lfemur
    lfemur ltibia
    ltibia lfoot
    lfoot ltoes
    rhipjoint rfemur
    rfemur rtibia
    rtibia rfoot
    rfoot rtoes
    lowerback upperback
    upperback thorax
    thorax lowerneck lclavicle rclavicle
    lowerneck upperneck
    upperneck head
    lclavicle lhumerus
    lhumerus lradius
    lradius lwrist
    lwrist lhand lthumb
    lhand lfingers
    rclavicle rhumerus
    rhumerus rradius
    rradius rwrist
    rwrist rhand rthumb
    rhand rfingers
  end

#!OML:ASF X:\für Bonn\!DataBase\2005_08_11_Bastian_Final\c3d\Bastian.ASF
:FULLY-SPECIFIED
:DEGREES
1
root -0.297603 17.375 5.61653 179.59 -11.6604 -179.269
lowerback 6.9196 -3.16653 -1.73406
upperback 3.28862 -4.52518 -0.18372
thorax -0.361071 -2.36396 1.0965
lowerneck -10.658 -6.45066 -2.66955
upperneck -2.17268 -9.05154 10.0645
head 1.81609 -4.54046 3.27781
rclavicle 3.34455e-014 -1.98785e-015
rhumerus 72.8071 20.2891 7.95873
rradius 39.4839
rwrist -56.4707
rhand -44.8074 -8.81137
rfingers 7.12502
rthumb -17.5983 -38.0349
lclavicle 3.34455e-014 -1.98785e-015
lhumerus 71.202 -20.8162 -6.56568
lradius 30.521
lwrist 1.17011
lhand -40.985 12.3337
lfingers 7.12502
lthumb -13.9171 41.848
rfemur -9.13089 8.81307 26.597
rtibia 40.1914
rfoot -27.4337 -24.569
rtoes 6.69183
lfemur -8.06602 3.27558 -18.7554
ltibia 30.5857
lfoot -13.8925 -13.1058
ltoes -5.86947
2
root -0.299271 17.3614 5.60384 179.498 -11.6857 -179.28
lowerback 6.84278 -3.16758 -1.75472
upperback 3.31726 -4.52733 -0.194763
thorax -0.288355 -2.36659 1.09041
lowerneck -10.5878 -6.45266 -2.61622
upperneck -2.1795 -9.05515 10.0161
head 1.79529 -4.54399 3.25337
rclavicle -8.98507e-014 -3.18055e-015
rhumerus 72.8527 20.2447 8.25155
rradius 39.461
rwrist -56.7815
rhand -44.8697 -8.86585
rfingers 7.12502
rthumb -17.6582 -38.084
lclavicle -8.98507e-014 -3.18055e-015
lhumerus 71.1492 -20.792 -6.19494
lradius 30.3901
lwrist 1.04456
lhand -40.987 12.3035
lfingers 7.12502
lthumb -13.9191 41.8177
rfemur -8.87808 9.34598 26.7617
rtibia 40.1255
rfoot -27.6057 -25.2093
rtoes 6.48922
lfemur -8.00249 4.17261 -18.6362
ltibia 30.7415
lfoot -13.8594 -14.0933
ltoes -5.50547
3
root -0.301139 17.3506 5.59275 179.381 -11.6831 -179.265
lowerback 6.82643 -3.16621 -1.75858
upperback 3.33416 -4.52632 -0.187472
thorax -0.261046 -2.36707 1.09811
lowerneck -10.4932 -6.4426 -2.57012
upperneck -2.19108 -9.03859 9.94668
head 1.76632 -4.53772 3.22522
rclavicle -5.04416e-014 -1.59028e-015
rhumerus 72.9273 20.2301 8.53017
rradius 39.5198
rwrist -57.234
rhand -45.0028 -8.90998
rfingers 7.12502
rthumb -17.7863 -38.1166
lclavicle -5.04416e-014 -1.59028e-015
lhumerus 71.0517 -20.8073 -5.64293
lradius 30.2351
lwrist 0.907134
lhand -40.9994 12.2633
lfingers 7.12502
lthumb -13.931 41.7766
rfemur -8.63901 9.60939 26.9052
rtibia 40.0678
rfoot -27.6556 -25.6135
rtoes 6.05081
lfemur -7.9031 4.92434 -18.5058
ltibia 30.8781
lfoot -13.836 -14.8844
ltoes -5.16925
4
root -0.303207 17.3423 5.58438 179.248 -11.7029 -179.273
lowerback 6.85698 -3.16234 -1.74642
upperback 3.3603 -4.52389 -0.21939
thorax -0.254636 -2.36692 1.05958
lowerneck -10.3924 -6.44427 -2.48395
upperneck -2.2296 -9.04543 9.90203
head 1.72816 -4.54553 3.19722
rclavicle 6.4605e-015 -8.74653e-015
rhumerus 72.9475 20.2377 8.75029
rradius 39.6038
rwrist -57.8199
rhand -45.1649 -8.7966
rfingers 7.12502
rthumb -17.9424 -37.989
lclavicle 6.4605e-015 -8.74653e-015
lhumerus 71.0345 -20.8296 -5.29879
lradius 30.1573
lwrist 1.02108
lhand -41.0672 12.3434
lfingers 7.12502
lthumb -13.9964 41.8522
rfemur -8.43177 9.45979 26.9396
rtibia 40.0175
rfoot -27.5506 -25.7108
rtoes 5.52754
lfemur -7.78806 5.60695 -18.4085
ltibia 30.9882
lfoot -13.7853 -15.6068
ltoes -5.07653
5
root -0.30468 17.3359 5.57834 179.101 -11.7005 -179.233
lowerback 6.91494 -3.15938 -1.72353
upperback 3.3873 -4.5225 -0.20536
thorax -0.25951 -2.36758 1.06391
lowerneck -10.3257 -6.44595 -2.44448
upperneck -2.24769 -9.04526 9.84174
head 1.70412 -4.54741 3.17169
rclavicle 2.11706e-014 8.74653e-015
rhumerus 72.9894 20.2522 8.87041
rradius 39.6942
rwrist -58.4144
rhand -45.3363 -8.61534
rfingers 7.12502
rthumb -18.1072 -37.7925
lclavicle 2.11706e-014 8.74653e-015
lhumerus 70.9904 -20.8579 -5.05844
lradius 30.1732
lwrist 1.42704
lhand -41.1709 12.4227
lfingers 7.12502
lthumb -14.0963 41.9246
rfemur -8.26009 8.98727 26.9459
rtibia 39.9662
rfoot -27.3393 -25.4704
rtoes 5.01366
lfemur -7.65853 6.12425 -18.2795
ltibia 31.0796
lfoot -13.7554 -16.137
ltoes -4.97758
6
root -0.306356 17.3321 5.57481 178.944 -11.7091 -179.215
lowerback 6.99047 -3.1517 -1.70521
upperback 3.42585 -4.5169 -0.21087
thorax -0.26356 -2.36673 1.05122
lowerneck -10.2323 -6.44932 -2.39814
upperneck -2.30957 -9.05004 9.81875
head 1.66316 -4.55472 3.15866
rclavicle 1.68967e-014 -2.70347e-014
rhumerus 72.9812 20.3002 8.86878
rradius 39.7891
rwrist -58.9679
rhand -45.4846 -8.39949
rfingers 7.12502
rthumb -18.2499 -37.5634
lclavicle 1.68967e-014 -2.70347e-014
lhumerus 70.926 -20.9086 -4.63749
lradius 30.1809
lwrist 1.72922
lhand -41.2604 12.4619
lfingers 7.12502
lthumb -14.1825 41.9578
rfemur -8.11201 8.32751 26.8795
rtibia 39.9333
rfoot -27.0634 -25.0753
rtoes 4.42227
lfemur -7.51425 6.5693 -18.1847
ltibia 31.1389
lfoot -13.7207 -16.5865
ltoes -5.04934
7
root -0.308375 17.3291 5.57512 178.778 -11.6649 -179.217
lowerback 7.11018 -3.13111 -1.68568
upperback 3.46022 -4.49573 -0.231657
thorax -0.298088 -2.3579 1.02434
lowerneck -10.1493 -6.45174 -2.37916
upperneck -2.35925 -9.05118 9.80702
head 1.63021 -4.55905 3.15425
rclavicle -3.46879e-014 7.15625e-015
rhumerus 72.9585 20.3735 8.74983
rradius 39.8609
rwrist -59.4223
rhand -45.5833 -8.20288
rfingers 7.12502
rthumb -18.3448 -37.3579
lclavicle -3.46879e-014 7.15625e-015
lhumerus 70.7922 -21.0346 -4.06634
lradius 30.1805
lwrist 1.8934
lhand -41.3854 12.5118
lfingers 7.12502
lthumb -14.303 41.9992
rfemur -8.0028 7.61076 26.7493
rtibia 39.9181
rfoot -26.783 -24.5552
rtoes 4.00034
lfemur -7.3467 6.85152 -18.1422
ltibia 31.1732
lfoot -13.6969 -16.8047
ltoes -5.13599
8
root -0.310791 17.3271 5.57922 178.586 -11.5924 -179.261
lowerback 7.28935 -3.09091 -1.71219
upperback 3.51137 -4.45534 -0.259322
thorax -0.345699 -2.34114 1.01773
lowerneck -10.0885 -6.44981 -2.3203
upperneck -2.42499 -9.0503 9.76723
head 1.59172 -4.5636 3.13274
rclavicle 6.59965e-014 1.98785e-015
rhumerus 72.8959 20.4647 8.47959
rradius 39.8846
rwrist -59.6567
rhand -45.6257 -8.05217
rfingers 7.12502
rthumb -18.3857 -37.2033
lclavicle 6.59965e-014 1.98785e-015
lhumerus 70.5992 -21.1613 -3.33445
lradius 30.2078
lwrist 1.88867
lhand -41.4713 12.5445
lfingers 7.12502
lthumb -14.3858 42.026
rfemur -7.90987 6.81372 26.5406
rtibia 39.9484
rfoot -26.4574 -23.8992
rtoes 3.48218
lfemur -7.12919 7.07091 -18.1631
ltibia 31.1574
lfoot -13.6885 -16.9223
ltoes -5.49341
9
root -0.313093 17.3267 5.58384 178.403 -11.5572 -179.306
lowerback 7.45418 -3.06856 -1.72385
upperback 3.56911 -4.43798 -0.292768
thorax -0.379438 -2.33602 0.99725
lowerneck -10.0248 -6.45744 -2.30775
upperneck -2.50829 -9.06003 9.78176
head 1.55371 -4.57395 3.13777
rclavicle 1.20762e-014 -1.55052e-014
rhumerus 72.7967 20.5786 8.09786
rradius 39.9005
rwrist -59.6803
rhand -45.562 -7.99102
rfingers 7.12502
rthumb -18.3244 -37.1479
lclavicle 1.20762e-014 -1.55052e-014
lhumerus 70.367 -21.2988 -2.68053
lradius 30.3244
lwrist 1.9371
lhand -41.5549 12.5784
lfingers 7.12502
lthumb -14.4663 42.0541
rfemur -7.8449 5.99167 26.3209
rtibia 40.0147
rfoot -26.2052 -23.2343
rtoes 3.04826
lfemur -6.90451 6.98121 -18.2248
ltibia 31.1082
lfoot -13.6739 -16.7485
ltoes -5.73212
10
root -0.313764 17.3262 5.58759 178.234 -11.5386 -179.395
lowerback 7.60301 -3.03697 -1.78779
upperback 3.62881 -4.412 -0.341595
thorax -0.399798 -2.32732 0.988124
lowerneck -9.98333 -6.46882 -2.2796
upperneck -2.57411 -9.07654 9.78043
head 1.52398 -4.58667 3.1333
rclavicle -9.97402e-014 -3.97569e-015
rhumerus 72.6243 20.7623 7.49573
rradius 39.794
rwrist -59.3264
rhand -45.3974 -7.98999
rfingers 7.12502
rthumb -18.166 -37.1617
lclavicle -9.97402e-014 -3.97569e-015
lhumerus 70.1569 -21.4666 -2.11251
lradius 30.5051
lwrist 1.98645
lhand -41.6692 12.6673
lfingers 7.12502
lthumb -14.5765 42.1352
rfemur -7.8044 5.22693 26.0606
rtibia 40.1169
rfoot -25.9695 -22.6031
rtoes 2.72524
lfemur -6.66717 6.63849 -18.3714
ltibia 31.0333
lfoot -13.7229 -16.3368
ltoes -6.16395
11
root -0.314046 17.3248 5.5917 178.031 -11.5395 -179.461
lowerback 7.78718 -3.02197 -1.86122
upperback 3.7003 -4.41099 -0.357192
thorax -0.423302 -2.33228 1.02183
lowerneck -9.92435 -6.47442 -2.30331
upperneck -2.6594 -9.07838 9.79552
head 1.48781 -4.59242 3.14555
rclavicle -1.55549e-014 -1.63003e-014
rhumerus 72.4854 20.9668 6.89545
rradius 39.6798
rwrist -58.7607
rhand -45.2198 -8.06051
rfingers 7.12502
rthumb -17.9951 -37.248
lclavicle -1.55549e-014 -1.63003e-014
lhumerus 69.9226 -21.6525 -1.67513
lradius 30.7313
lwrist 2.15535
lhand -41.8124 12.7884
lfingers 7.12502
lthumb -14.7144 42.2462
rfemur -7.72955 4.45734 25.829
rtibia 40.2368
rfoot -25.8201 -21.9254
rtoes 2.61304
lfemur -6.39272 6.17966 -18.5085
ltibia 30.9601
lfoot -13.8075 -15.8048
ltoes -6.73964
